<mxfile host="app.diagrams.net" modified="2022-11-23T19:15:29.856Z" agent="5.0 (Windows NT 10.0; Win64; x64) AppleWebKit/537.36 (KHTML, like Gecko) Chrome/107.0.0.0 Safari/537.36" etag="GEV6ebqqePmAFEcp4G8K" version="20.6.0" type="github" pages="2">
  <diagram id="kgpKYQtTHZ0yAKxKKP6v" name="Page-1">
    <mxGraphModel dx="860" dy="466" grid="1" gridSize="10" guides="1" tooltips="1" connect="1" arrows="1" fold="1" page="1" pageScale="1.2" pageWidth="413" pageHeight="291" background="#FFFFFF" math="0" shadow="0">
      <root>
        <mxCell id="0" />
        <mxCell id="1" parent="0" />
        <mxCell id="sGXvdLq_XoUKNio_A1aQ-141" value="" style="endArrow=block;endFill=0;endSize=12;html=1;rounded=1;entryX=0.021;entryY=0.978;entryDx=0;entryDy=0;entryPerimeter=0;labelBackgroundColor=#DAD2D8;strokeColor=#A8201A;fontColor=#143642;" parent="1" edge="1">
          <mxGeometry width="160" relative="1" as="geometry">
            <mxPoint x="381.2500000000002" y="940" as="sourcePoint" />
            <mxPoint x="570.21" y="938.9839999999999" as="targetPoint" />
          </mxGeometry>
        </mxCell>
        <mxCell id="sGXvdLq_XoUKNio_A1aQ-8" value="&lt;span style=&quot;&quot;&gt;Application IHM&lt;/span&gt;" style="shape=umlLifeline;perimeter=lifelinePerimeter;whiteSpace=wrap;html=1;container=0;collapsible=0;recursiveResize=0;outlineConnect=0;rounded=1;fillColor=#FAE5C7;strokeColor=#0F8B8D;fontColor=#143642;" parent="1" vertex="1">
          <mxGeometry x="326.46" y="86.5" width="100" height="923.5" as="geometry" />
        </mxCell>
        <mxCell id="sGXvdLq_XoUKNio_A1aQ-1" value="user" style="shape=umlActor;verticalLabelPosition=bottom;verticalAlign=top;html=1;rounded=1;fillColor=#FAE5C7;strokeColor=#0F8B8D;fontColor=#143642;" parent="1" vertex="1">
          <mxGeometry x="163" y="67" width="30" height="60" as="geometry" />
        </mxCell>
        <mxCell id="sGXvdLq_XoUKNio_A1aQ-11" value="&lt;span style=&quot;&quot;&gt;Application&lt;/span&gt;" style="shape=umlLifeline;perimeter=lifelinePerimeter;whiteSpace=wrap;html=1;container=0;collapsible=0;recursiveResize=0;outlineConnect=0;rounded=1;fillColor=#FAE5C7;strokeColor=#0F8B8D;fontColor=#143642;" parent="1" vertex="1">
          <mxGeometry x="525" y="86.5" width="100" height="923.5" as="geometry" />
        </mxCell>
        <mxCell id="sGXvdLq_XoUKNio_A1aQ-12" value="&lt;span style=&quot;&quot;&gt;Storage&lt;/span&gt;" style="shape=umlLifeline;perimeter=lifelinePerimeter;whiteSpace=wrap;html=1;container=0;collapsible=0;recursiveResize=0;outlineConnect=0;rounded=1;fillColor=#FAE5C7;strokeColor=#0F8B8D;fontColor=#143642;" parent="1" vertex="1">
          <mxGeometry x="723" y="86.5" width="100" height="923.5" as="geometry" />
        </mxCell>
        <mxCell id="sGXvdLq_XoUKNio_A1aQ-23" value="" style="endArrow=none;dashed=1;html=1;rounded=1;labelBackgroundColor=#DAD2D8;strokeColor=#009900;fontColor=#143642;fillColor=#d5e8d4;" parent="1" edge="1">
          <mxGeometry width="50" height="50" relative="1" as="geometry">
            <mxPoint x="177" y="1010" as="sourcePoint" />
            <mxPoint x="177.86493506493508" y="147" as="targetPoint" />
          </mxGeometry>
        </mxCell>
        <mxCell id="sGXvdLq_XoUKNio_A1aQ-137" value="" style="endArrow=block;endFill=0;endSize=12;html=1;rounded=1;labelBackgroundColor=#DAD2D8;strokeColor=#A8201A;fontColor=#143642;" parent="1" edge="1">
          <mxGeometry width="160" relative="1" as="geometry">
            <mxPoint x="183.0000000000002" y="920" as="sourcePoint" />
            <mxPoint x="372.5" y="920" as="targetPoint" />
          </mxGeometry>
        </mxCell>
        <mxCell id="sGXvdLq_XoUKNio_A1aQ-140" value="Execute shutdown procedure" style="text;html=1;align=center;verticalAlign=middle;resizable=0;points=[];autosize=1;strokeColor=none;fillColor=none;rounded=1;fontColor=#143642;" parent="1" vertex="1">
          <mxGeometry x="384.25" y="910" width="180" height="30" as="geometry" />
        </mxCell>
        <mxCell id="sGXvdLq_XoUKNio_A1aQ-146" value="Shutdown" style="text;html=1;align=center;verticalAlign=middle;resizable=0;points=[];autosize=1;strokeColor=none;fillColor=none;rounded=1;fontColor=#143642;" parent="1" vertex="1">
          <mxGeometry x="405.40999999999997" y="959" width="80" height="30" as="geometry" />
        </mxCell>
        <mxCell id="sGXvdLq_XoUKNio_A1aQ-147" value="" style="endArrow=open;endFill=1;endSize=12;html=1;rounded=0;labelBackgroundColor=#DAD2D8;strokeColor=#A8201A;fontColor=#143642;" parent="1" edge="1">
          <mxGeometry width="160" relative="1" as="geometry">
            <mxPoint x="579.5000000000001" y="959" as="sourcePoint" />
            <mxPoint x="579.3103448275862" y="979" as="targetPoint" />
            <Array as="points">
              <mxPoint x="609.5000000000001" y="959" />
              <mxPoint x="609.5000000000001" y="979" />
            </Array>
          </mxGeometry>
        </mxCell>
        <mxCell id="sGXvdLq_XoUKNio_A1aQ-148" value="Shutdown" style="text;html=1;align=center;verticalAlign=middle;resizable=0;points=[];autosize=1;strokeColor=none;fillColor=none;rounded=1;fontColor=#143642;" parent="1" vertex="1">
          <mxGeometry x="604.08" y="959" width="80" height="30" as="geometry" />
        </mxCell>
        <mxCell id="sGXvdLq_XoUKNio_A1aQ-138" value="Select shutdown application" style="text;html=1;align=center;verticalAlign=middle;resizable=0;points=[];autosize=1;strokeColor=none;fillColor=none;rounded=1;fontColor=#143642;" parent="1" vertex="1">
          <mxGeometry x="193" y="890" width="170" height="30" as="geometry" />
        </mxCell>
        <mxCell id="vB3oa_qT5mKGnojGgwLK-79" value="" style="html=1;points=[];perimeter=orthogonalPerimeter;rounded=0;glass=0;labelBackgroundColor=none;fillStyle=auto;fillColor=#FAE5C7;strokeColor=#0F8B8D;fontColor=#143642;" parent="1" vertex="1">
          <mxGeometry x="173" y="160" width="10" height="830" as="geometry" />
        </mxCell>
        <mxCell id="vB3oa_qT5mKGnojGgwLK-76" value="" style="html=1;points=[];perimeter=orthogonalPerimeter;rounded=0;glass=0;labelBackgroundColor=none;fillStyle=auto;fillColor=#FAE5C7;strokeColor=#0F8B8D;fontColor=#143642;" parent="1" vertex="1">
          <mxGeometry x="371.46" y="160" width="10" height="830" as="geometry" />
        </mxCell>
        <mxCell id="sGXvdLq_XoUKNio_A1aQ-145" value="" style="endArrow=open;endFill=1;endSize=12;html=1;rounded=0;labelBackgroundColor=#DAD2D8;strokeColor=#A8201A;fontColor=#143642;" parent="1" edge="1">
          <mxGeometry width="160" relative="1" as="geometry">
            <mxPoint x="382.17" y="958" as="sourcePoint" />
            <mxPoint x="382.0033333333334" y="978" as="targetPoint" />
            <Array as="points">
              <mxPoint x="410" y="958" />
              <mxPoint x="410" y="978" />
            </Array>
          </mxGeometry>
        </mxCell>
        <mxCell id="vB3oa_qT5mKGnojGgwLK-77" value="" style="html=1;points=[];perimeter=orthogonalPerimeter;rounded=0;glass=0;labelBackgroundColor=none;fillStyle=auto;fillColor=#FAE5C7;strokeColor=#0F8B8D;fontColor=#143642;" parent="1" vertex="1">
          <mxGeometry x="570" y="160" width="10" height="830" as="geometry" />
        </mxCell>
        <mxCell id="vB3oa_qT5mKGnojGgwLK-78" value="" style="html=1;points=[];perimeter=orthogonalPerimeter;rounded=0;glass=0;labelBackgroundColor=none;fillStyle=auto;fillColor=#FAE5C7;strokeColor=#0F8B8D;fontColor=#143642;" parent="1" vertex="1">
          <mxGeometry x="768" y="690" width="10" height="200" as="geometry" />
        </mxCell>
        <mxCell id="QkUWkM4qVgkFBgqkuegU-34" value="Select create save" style="text;html=1;align=center;verticalAlign=middle;resizable=0;points=[];autosize=1;strokeColor=none;fillColor=none;rounded=1;fontColor=#143642;" parent="1" vertex="1">
          <mxGeometry x="218.09" y="500" width="120" height="30" as="geometry" />
        </mxCell>
        <mxCell id="QkUWkM4qVgkFBgqkuegU-35" value="" style="endArrow=open;endFill=1;endSize=12;html=1;rounded=1;entryX=0.071;entryY=0.165;entryDx=0;entryDy=0;entryPerimeter=0;labelBackgroundColor=#DAD2D8;strokeColor=#A8201A;fontColor=#143642;" parent="1" edge="1">
          <mxGeometry width="160" relative="1" as="geometry">
            <mxPoint x="183.50000000000009" y="529.4299999999998" as="sourcePoint" />
            <mxPoint x="372.6700000000002" y="529.05" as="targetPoint" />
          </mxGeometry>
        </mxCell>
        <mxCell id="QkUWkM4qVgkFBgqkuegU-50" value="Ask interface for save name" style="text;html=1;align=center;verticalAlign=middle;resizable=0;points=[];autosize=1;strokeColor=none;fillColor=none;rounded=1;fontColor=#143642;" parent="1" vertex="1">
          <mxGeometry x="392" y="513" width="170" height="30" as="geometry" />
        </mxCell>
        <mxCell id="QkUWkM4qVgkFBgqkuegU-51" value="" style="endArrow=open;endFill=1;endSize=12;html=1;rounded=1;labelBackgroundColor=#DAD2D8;strokeColor=#A8201A;fontColor=#143642;" parent="1" edge="1">
          <mxGeometry width="160" relative="1" as="geometry">
            <mxPoint x="381" y="540" as="sourcePoint" />
            <mxPoint x="571" y="540" as="targetPoint" />
          </mxGeometry>
        </mxCell>
        <mxCell id="QkUWkM4qVgkFBgqkuegU-69" value="Enter save name" style="text;html=1;align=center;verticalAlign=middle;resizable=0;points=[];autosize=1;strokeColor=none;fillColor=none;rounded=1;fontColor=#143642;" parent="1" vertex="1">
          <mxGeometry x="221" y="582" width="110" height="30" as="geometry" />
        </mxCell>
        <mxCell id="QkUWkM4qVgkFBgqkuegU-70" value="" style="endArrow=open;endFill=1;endSize=12;html=1;rounded=1;labelBackgroundColor=#DAD2D8;strokeColor=#A8201A;fontColor=#143642;" parent="1" edge="1">
          <mxGeometry width="160" relative="1" as="geometry">
            <mxPoint x="182" y="610.0000000000001" as="sourcePoint" />
            <mxPoint x="372" y="610.0000000000001" as="targetPoint" />
          </mxGeometry>
        </mxCell>
        <mxCell id="QkUWkM4qVgkFBgqkuegU-71" value="Ask interface for path src" style="text;html=1;align=center;verticalAlign=middle;resizable=0;points=[];autosize=1;strokeColor=none;fillColor=none;rounded=1;fontColor=#143642;" parent="1" vertex="1">
          <mxGeometry x="395" y="592" width="160" height="30" as="geometry" />
        </mxCell>
        <mxCell id="QkUWkM4qVgkFBgqkuegU-72" value="" style="endArrow=open;endFill=1;endSize=12;html=1;rounded=1;labelBackgroundColor=#DAD2D8;strokeColor=#A8201A;fontColor=#143642;" parent="1" edge="1">
          <mxGeometry width="160" relative="1" as="geometry">
            <mxPoint x="380" y="621.9999999999999" as="sourcePoint" />
            <mxPoint x="570" y="621.9999999999999" as="targetPoint" />
          </mxGeometry>
        </mxCell>
        <mxCell id="QkUWkM4qVgkFBgqkuegU-73" value="Loading screen" style="text;html=1;align=center;verticalAlign=middle;resizable=0;points=[];autosize=1;strokeColor=none;fillColor=none;rounded=1;fontColor=#143642;" parent="1" vertex="1">
          <mxGeometry x="422.42" y="622" width="110" height="30" as="geometry" />
        </mxCell>
        <mxCell id="QkUWkM4qVgkFBgqkuegU-74" value="" style="endArrow=block;dashed=1;endFill=0;endSize=12;html=1;rounded=1;labelBackgroundColor=#DAD2D8;strokeColor=#A8201A;fontColor=#143642;" parent="1" edge="1">
          <mxGeometry width="160" relative="1" as="geometry">
            <mxPoint x="570.9200000000005" y="650" as="sourcePoint" />
            <mxPoint x="381.0866666666668" y="650" as="targetPoint" />
          </mxGeometry>
        </mxCell>
        <mxCell id="QkUWkM4qVgkFBgqkuegU-75" value="" style="endArrow=block;endFill=0;endSize=12;html=1;rounded=1;labelBackgroundColor=#DAD2D8;strokeColor=#A8201A;fontColor=#143642;" parent="1" edge="1">
          <mxGeometry width="160" relative="1" as="geometry">
            <mxPoint x="372.46000000000004" y="662" as="sourcePoint" />
            <mxPoint x="182.6266666666669" y="662" as="targetPoint" />
          </mxGeometry>
        </mxCell>
        <mxCell id="QkUWkM4qVgkFBgqkuegU-76" value="Request select path src" style="text;html=1;align=center;verticalAlign=middle;resizable=0;points=[];autosize=1;strokeColor=none;fillColor=none;rounded=1;fontColor=#143642;" parent="1" vertex="1">
          <mxGeometry x="202.04" y="632" width="150" height="30" as="geometry" />
        </mxCell>
        <mxCell id="QkUWkM4qVgkFBgqkuegU-92" value="Alternative" style="shape=umlFrame;whiteSpace=wrap;html=1;width=60;height=35;fillColor=#FAE5C7;strokeColor=#0F8B8D;fontColor=#143642;" parent="1" vertex="1">
          <mxGeometry x="101" y="725" width="699" height="145" as="geometry" />
        </mxCell>
        <mxCell id="QkUWkM4qVgkFBgqkuegU-93" value="[if path is &lt;br&gt;inexistent]" style="text;html=1;align=center;verticalAlign=middle;resizable=0;points=[];autosize=1;strokeColor=none;fillColor=none;fontColor=#143642;" parent="1" vertex="1">
          <mxGeometry x="93" y="758" width="80" height="40" as="geometry" />
        </mxCell>
        <mxCell id="QkUWkM4qVgkFBgqkuegU-94" value="[else]" style="text;html=1;align=center;verticalAlign=middle;resizable=0;points=[];autosize=1;strokeColor=none;fillColor=none;fontColor=#143642;" parent="1" vertex="1">
          <mxGeometry x="95" y="796" width="50" height="30" as="geometry" />
        </mxCell>
        <mxCell id="QkUWkM4qVgkFBgqkuegU-95" value="" style="line;strokeWidth=1;fillColor=none;align=left;verticalAlign=middle;spacingTop=-1;spacingLeft=3;spacingRight=3;rotatable=0;labelPosition=right;points=[];portConstraint=eastwest;dashed=1;labelBackgroundColor=#DAD2D8;strokeColor=#0F8B8D;fontColor=#143642;" parent="1" vertex="1">
          <mxGeometry x="102" y="796" width="700" height="8" as="geometry" />
        </mxCell>
        <mxCell id="QkUWkM4qVgkFBgqkuegU-96" value="" style="endArrow=block;dashed=1;endFill=0;endSize=12;html=1;rounded=1;exitX=-0.161;exitY=0.058;exitDx=0;exitDy=0;exitPerimeter=0;labelBackgroundColor=#DAD2D8;strokeColor=#A8201A;fontColor=#143642;" parent="1" edge="1">
          <mxGeometry width="160" relative="1" as="geometry">
            <mxPoint x="766.3900000000001" y="753.1799999999998" as="sourcePoint" />
            <mxPoint x="578.9999999999998" y="753" as="targetPoint" />
          </mxGeometry>
        </mxCell>
        <mxCell id="QkUWkM4qVgkFBgqkuegU-98" value="" style="endArrow=block;dashed=1;endFill=0;endSize=12;html=1;rounded=1;targetPerimeterSpacing=-4;sourcePerimeterSpacing=3;labelBackgroundColor=#DAD2D8;strokeColor=#A8201A;fontColor=#143642;" parent="1" edge="1">
          <mxGeometry width="160" relative="1" as="geometry">
            <mxPoint x="769.9999999999999" y="827.8299999999999" as="sourcePoint" />
            <mxPoint x="580.1666666666671" y="827.8299999999999" as="targetPoint" />
          </mxGeometry>
        </mxCell>
        <mxCell id="QkUWkM4qVgkFBgqkuegU-99" value="Verify path src exists" style="text;html=1;align=center;verticalAlign=middle;resizable=0;points=[];autosize=1;strokeColor=none;fillColor=none;rounded=1;fontColor=#143642;" parent="1" vertex="1">
          <mxGeometry x="609.5" y="682" width="130" height="30" as="geometry" />
        </mxCell>
        <mxCell id="QkUWkM4qVgkFBgqkuegU-100" value="Inexistent path src" style="text;html=1;align=center;verticalAlign=middle;resizable=0;points=[];autosize=1;strokeColor=none;fillColor=none;rounded=1;fontColor=#143642;" parent="1" vertex="1">
          <mxGeometry x="615.0000000000001" y="726" width="120" height="30" as="geometry" />
        </mxCell>
        <mxCell id="QkUWkM4qVgkFBgqkuegU-102" value="Existent path src" style="text;html=1;align=center;verticalAlign=middle;resizable=0;points=[];autosize=1;strokeColor=none;fillColor=none;rounded=1;fontColor=#143642;" parent="1" vertex="1">
          <mxGeometry x="620.08" y="800" width="110" height="30" as="geometry" />
        </mxCell>
        <mxCell id="QkUWkM4qVgkFBgqkuegU-103" value="" style="endArrow=open;endFill=1;endSize=12;html=1;rounded=1;targetPerimeterSpacing=-4;sourcePerimeterSpacing=3;labelBackgroundColor=#DAD2D8;strokeColor=#A8201A;fontColor=#143642;" parent="1" edge="1">
          <mxGeometry width="160" relative="1" as="geometry">
            <mxPoint x="579.0799999999999" y="711" as="sourcePoint" />
            <mxPoint x="769.0799999999999" y="711" as="targetPoint" />
          </mxGeometry>
        </mxCell>
        <mxCell id="QkUWkM4qVgkFBgqkuegU-163" value="Loading screen" style="text;html=1;align=center;verticalAlign=middle;resizable=0;points=[];autosize=1;strokeColor=none;fillColor=none;rounded=1;fontColor=#143642;" parent="1" vertex="1">
          <mxGeometry x="419.77000000000004" y="541" width="110" height="30" as="geometry" />
        </mxCell>
        <mxCell id="QkUWkM4qVgkFBgqkuegU-164" value="" style="endArrow=block;dashed=1;endFill=0;endSize=12;html=1;rounded=1;exitX=-0.211;exitY=0.186;exitDx=0;exitDy=0;exitPerimeter=0;labelBackgroundColor=#DAD2D8;strokeColor=#A8201A;fontColor=#143642;" parent="1" edge="1">
          <mxGeometry width="160" relative="1" as="geometry">
            <mxPoint x="567.5499999999998" y="569.998" as="sourcePoint" />
            <mxPoint x="381.6599999999999" y="570.5900000000001" as="targetPoint" />
          </mxGeometry>
        </mxCell>
        <mxCell id="QkUWkM4qVgkFBgqkuegU-165" value="Request user save name" style="text;html=1;align=center;verticalAlign=middle;resizable=0;points=[];autosize=1;strokeColor=none;fillColor=none;rounded=1;fontColor=#143642;" parent="1" vertex="1">
          <mxGeometry x="197.60000000000002" y="552" width="160" height="30" as="geometry" />
        </mxCell>
        <mxCell id="QkUWkM4qVgkFBgqkuegU-166" value="" style="endArrow=block;endFill=0;endSize=12;html=1;rounded=1;labelBackgroundColor=#DAD2D8;strokeColor=#A8201A;fontColor=#143642;" parent="1" edge="1">
          <mxGeometry width="160" relative="1" as="geometry">
            <mxPoint x="370.77000000000004" y="581.0000000000001" as="sourcePoint" />
            <mxPoint x="182.59666666666664" y="581.0000000000001" as="targetPoint" />
          </mxGeometry>
        </mxCell>
        <mxCell id="vIvqh3EOmnA0zH3-zFLY-1" value="" style="html=1;points=[];perimeter=orthogonalPerimeter;rounded=0;glass=0;labelBackgroundColor=none;fillStyle=auto;fillColor=#FAE5C7;strokeColor=#0F8B8D;fontColor=#143642;" parent="1" vertex="1">
          <mxGeometry x="768" y="263" width="10" height="203" as="geometry" />
        </mxCell>
        <mxCell id="vIvqh3EOmnA0zH3-zFLY-2" value="" style="endArrow=block;dashed=1;endFill=0;endSize=12;html=1;rounded=1;exitX=-0.161;exitY=0.058;exitDx=0;exitDy=0;exitPerimeter=0;labelBackgroundColor=#DAD2D8;strokeColor=#A8201A;fontColor=#143642;" parent="1" edge="1">
          <mxGeometry width="160" relative="1" as="geometry">
            <mxPoint x="766.3900000000001" y="321.3499999999999" as="sourcePoint" />
            <mxPoint x="579.0000000000002" y="321.16999999999996" as="targetPoint" />
          </mxGeometry>
        </mxCell>
        <mxCell id="vIvqh3EOmnA0zH3-zFLY-3" value="" style="endArrow=block;dashed=1;endFill=0;endSize=12;html=1;rounded=1;labelBackgroundColor=#DAD2D8;strokeColor=#A8201A;fontColor=#143642;" parent="1" edge="1">
          <mxGeometry width="160" relative="1" as="geometry">
            <mxPoint x="567.2100000000005" y="222.81999999999994" as="sourcePoint" />
            <mxPoint x="381.28999999999996" y="222.81999999999994" as="targetPoint" />
          </mxGeometry>
        </mxCell>
        <mxCell id="vIvqh3EOmnA0zH3-zFLY-4" value="" style="endArrow=open;endFill=1;endSize=12;html=1;rounded=1;targetPerimeterSpacing=-4;sourcePerimeterSpacing=3;labelBackgroundColor=#DAD2D8;strokeColor=#A8201A;fontColor=#143642;" parent="1" edge="1">
          <mxGeometry width="160" relative="1" as="geometry">
            <mxPoint x="580" y="352.0000000000001" as="sourcePoint" />
            <mxPoint x="770" y="352.0000000000001" as="targetPoint" />
          </mxGeometry>
        </mxCell>
        <mxCell id="vIvqh3EOmnA0zH3-zFLY-5" value="" style="endArrow=block;dashed=1;endFill=0;endSize=12;html=1;rounded=1;targetPerimeterSpacing=-4;sourcePerimeterSpacing=3;labelBackgroundColor=#DAD2D8;strokeColor=#A8201A;fontColor=#143642;" parent="1" edge="1">
          <mxGeometry width="160" relative="1" as="geometry">
            <mxPoint x="769.4200000000001" y="428.8299999999998" as="sourcePoint" />
            <mxPoint x="579.5866666666668" y="428.8299999999998" as="targetPoint" />
          </mxGeometry>
        </mxCell>
        <mxCell id="vIvqh3EOmnA0zH3-zFLY-6" value="Execute application" style="text;html=1;align=center;verticalAlign=middle;resizable=0;points=[];autosize=1;strokeColor=none;fillColor=none;rounded=1;fontColor=#143642;" parent="1" vertex="1">
          <mxGeometry x="213" y="153" width="130" height="30" as="geometry" />
        </mxCell>
        <mxCell id="vIvqh3EOmnA0zH3-zFLY-7" value="" style="endArrow=open;endFill=1;endSize=12;html=1;rounded=1;entryX=0.118;entryY=0.021;entryDx=0;entryDy=0;entryPerimeter=0;labelBackgroundColor=#DAD2D8;strokeColor=#A8201A;fontColor=#143642;" parent="1" edge="1">
          <mxGeometry width="160" relative="1" as="geometry">
            <mxPoint x="183" y="179.9999999999999" as="sourcePoint" />
            <mxPoint x="372.6400000000001" y="180.42300000000012" as="targetPoint" />
          </mxGeometry>
        </mxCell>
        <mxCell id="vIvqh3EOmnA0zH3-zFLY-8" value="Start program process" style="text;html=1;align=center;verticalAlign=middle;resizable=0;points=[];autosize=1;strokeColor=none;fillColor=none;rounded=1;fontColor=#143642;" parent="1" vertex="1">
          <mxGeometry x="406" y="161" width="140" height="30" as="geometry" />
        </mxCell>
        <mxCell id="vIvqh3EOmnA0zH3-zFLY-9" value="" style="endArrow=open;endFill=1;endSize=12;html=1;rounded=1;exitX=0.913;exitY=0.022;exitDx=0;exitDy=0;exitPerimeter=0;labelBackgroundColor=#DAD2D8;strokeColor=#A8201A;fontColor=#143642;" parent="1" edge="1">
          <mxGeometry width="160" relative="1" as="geometry">
            <mxPoint x="380.5899999999999" y="189.01599999999996" as="sourcePoint" />
            <mxPoint x="571" y="188.9999999999999" as="targetPoint" />
          </mxGeometry>
        </mxCell>
        <mxCell id="vIvqh3EOmnA0zH3-zFLY-10" value="" style="endArrow=block;dashed=1;endFill=0;endSize=12;html=1;rounded=1;exitX=-0.125;exitY=0.144;exitDx=0;exitDy=0;exitPerimeter=0;labelBackgroundColor=#DAD2D8;strokeColor=#A8201A;fontColor=#143642;" parent="1" edge="1">
          <mxGeometry width="160" relative="1" as="geometry">
            <mxPoint x="370.95000000000005" y="489.0020000000003" as="sourcePoint" />
            <mxPoint x="183.82666666666682" y="489.1700000000001" as="targetPoint" />
          </mxGeometry>
        </mxCell>
        <mxCell id="vIvqh3EOmnA0zH3-zFLY-11" value="Verify default folder exists" style="text;html=1;align=center;verticalAlign=middle;resizable=0;points=[];autosize=1;strokeColor=none;fillColor=none;rounded=1;fontColor=#143642;" parent="1" vertex="1">
          <mxGeometry x="594.5" y="257" width="160" height="30" as="geometry" />
        </mxCell>
        <mxCell id="vIvqh3EOmnA0zH3-zFLY-12" value="Alternative" style="shape=umlFrame;whiteSpace=wrap;html=1;width=60;height=35;fillColor=#FAE5C7;strokeColor=#0F8B8D;fontColor=#143642;" parent="1" vertex="1">
          <mxGeometry x="101" y="296" width="702" height="150" as="geometry" />
        </mxCell>
        <mxCell id="vIvqh3EOmnA0zH3-zFLY-13" value="Loading screen" style="text;html=1;align=center;verticalAlign=middle;resizable=0;points=[];autosize=1;strokeColor=none;fillColor=none;rounded=1;fontColor=#143642;" parent="1" vertex="1">
          <mxGeometry x="416.99999999999994" y="194" width="110" height="30" as="geometry" />
        </mxCell>
        <mxCell id="vIvqh3EOmnA0zH3-zFLY-14" value="[if folder is &lt;br&gt;inexistent]" style="text;html=1;align=center;verticalAlign=middle;resizable=0;points=[];autosize=1;strokeColor=none;fillColor=none;fontColor=#143642;" parent="1" vertex="1">
          <mxGeometry x="93" y="329" width="80" height="40" as="geometry" />
        </mxCell>
        <mxCell id="vIvqh3EOmnA0zH3-zFLY-15" value="[else]" style="text;html=1;align=center;verticalAlign=middle;resizable=0;points=[];autosize=1;strokeColor=none;fillColor=none;fontColor=#143642;" parent="1" vertex="1">
          <mxGeometry x="93" y="394" width="50" height="30" as="geometry" />
        </mxCell>
        <mxCell id="vIvqh3EOmnA0zH3-zFLY-16" value="Inexistent default folder" style="text;html=1;align=center;verticalAlign=middle;resizable=0;points=[];autosize=1;strokeColor=none;fillColor=none;rounded=1;fontColor=#143642;" parent="1" vertex="1">
          <mxGeometry x="600.0000000000001" y="294.16999999999996" width="150" height="30" as="geometry" />
        </mxCell>
        <mxCell id="vIvqh3EOmnA0zH3-zFLY-17" value="" style="line;strokeWidth=1;fillColor=none;align=left;verticalAlign=middle;spacingTop=-1;spacingLeft=3;spacingRight=3;rotatable=0;labelPosition=right;points=[];portConstraint=eastwest;dashed=1;labelBackgroundColor=#DAD2D8;strokeColor=#0F8B8D;fontColor=#143642;" parent="1" vertex="1">
          <mxGeometry x="101" y="394" width="700" height="8" as="geometry" />
        </mxCell>
        <mxCell id="vIvqh3EOmnA0zH3-zFLY-18" value="Generate folder" style="text;html=1;align=center;verticalAlign=middle;resizable=0;points=[];autosize=1;strokeColor=none;fillColor=none;rounded=1;fontColor=#143642;" parent="1" vertex="1">
          <mxGeometry x="620.42" y="326" width="110" height="30" as="geometry" />
        </mxCell>
        <mxCell id="vIvqh3EOmnA0zH3-zFLY-19" value="Existent default folder" style="text;html=1;align=center;verticalAlign=middle;resizable=0;points=[];autosize=1;strokeColor=none;fillColor=none;rounded=1;fontColor=#143642;" parent="1" vertex="1">
          <mxGeometry x="604.5" y="403" width="140" height="30" as="geometry" />
        </mxCell>
        <mxCell id="vIvqh3EOmnA0zH3-zFLY-20" value="Display operation interface&lt;br&gt;(Console)" style="text;html=1;align=center;verticalAlign=middle;resizable=0;points=[];autosize=1;strokeColor=none;fillColor=none;rounded=1;fontColor=#143642;" parent="1" vertex="1">
          <mxGeometry x="193" y="449" width="170" height="40" as="geometry" />
        </mxCell>
        <mxCell id="vIvqh3EOmnA0zH3-zFLY-21" value="" style="endArrow=open;endFill=1;endSize=12;html=1;rounded=1;targetPerimeterSpacing=-4;sourcePerimeterSpacing=3;labelBackgroundColor=#DAD2D8;strokeColor=#A8201A;fontColor=#143642;" parent="1" edge="1">
          <mxGeometry width="160" relative="1" as="geometry">
            <mxPoint x="579.0799999999999" y="285.9999999999999" as="sourcePoint" />
            <mxPoint x="769.0799999999999" y="285.9999999999999" as="targetPoint" />
          </mxGeometry>
        </mxCell>
        <mxCell id="vIvqh3EOmnA0zH3-zFLY-22" value="" style="endArrow=block;dashed=1;endFill=0;endSize=12;html=1;rounded=1;targetPerimeterSpacing=-4;sourcePerimeterSpacing=3;exitX=-0.099;exitY=0.603;exitDx=0;exitDy=0;exitPerimeter=0;labelBackgroundColor=#DAD2D8;strokeColor=#A8201A;fontColor=#143642;" parent="1" edge="1">
          <mxGeometry width="160" relative="1" as="geometry">
            <mxPoint x="767.01" y="381.72" as="sourcePoint" />
            <mxPoint x="580.5866666666668" y="381.9999999999999" as="targetPoint" />
          </mxGeometry>
        </mxCell>
        <mxCell id="vIvqh3EOmnA0zH3-zFLY-23" value="Folder created successfully" style="text;html=1;align=center;verticalAlign=middle;resizable=0;points=[];autosize=1;strokeColor=none;fillColor=none;rounded=1;fontColor=#143642;" parent="1" vertex="1">
          <mxGeometry x="590.5000000000001" y="354.99999999999994" width="170" height="30" as="geometry" />
        </mxCell>
        <mxCell id="vIvqh3EOmnA0zH3-zFLY-24" value="Request user select language&lt;br&gt;(En or Fr)" style="text;html=1;align=center;verticalAlign=middle;resizable=0;points=[];autosize=1;strokeColor=none;fillColor=none;rounded=1;fontColor=#143642;" parent="1" vertex="1">
          <mxGeometry x="188.82999999999993" y="193" width="180" height="40" as="geometry" />
        </mxCell>
        <mxCell id="vIvqh3EOmnA0zH3-zFLY-25" value="" style="endArrow=block;endFill=0;endSize=12;html=1;rounded=1;labelBackgroundColor=#DAD2D8;strokeColor=#A8201A;fontColor=#143642;" parent="1" edge="1">
          <mxGeometry width="160" relative="1" as="geometry">
            <mxPoint x="369.75000000000045" y="233.9999999999999" as="sourcePoint" />
            <mxPoint x="183.82999999999993" y="233.9999999999999" as="targetPoint" />
          </mxGeometry>
        </mxCell>
        <mxCell id="vIvqh3EOmnA0zH3-zFLY-26" value="Select language" style="text;html=1;align=center;verticalAlign=middle;resizable=0;points=[];autosize=1;strokeColor=none;fillColor=none;rounded=1;fontColor=#143642;" parent="1" vertex="1">
          <mxGeometry x="223" y="234" width="110" height="30" as="geometry" />
        </mxCell>
        <mxCell id="vIvqh3EOmnA0zH3-zFLY-27" value="" style="endArrow=open;endFill=1;endSize=12;html=1;rounded=1;entryX=0.071;entryY=0.165;entryDx=0;entryDy=0;entryPerimeter=0;labelBackgroundColor=#DAD2D8;strokeColor=#A8201A;fontColor=#143642;" parent="1" edge="1">
          <mxGeometry width="160" relative="1" as="geometry">
            <mxPoint x="183" y="262.38" as="sourcePoint" />
            <mxPoint x="372.1700000000001" y="261.9999999999999" as="targetPoint" />
          </mxGeometry>
        </mxCell>
        <mxCell id="vIvqh3EOmnA0zH3-zFLY-28" value="Loading screen" style="text;html=1;align=center;verticalAlign=middle;resizable=0;points=[];autosize=1;strokeColor=none;fillColor=none;rounded=1;fontColor=#143642;" parent="1" vertex="1">
          <mxGeometry x="420.83000000000004" y="447" width="110" height="30" as="geometry" />
        </mxCell>
        <mxCell id="vIvqh3EOmnA0zH3-zFLY-29" value="" style="endArrow=block;dashed=1;endFill=0;endSize=12;html=1;rounded=1;exitX=-0.211;exitY=0.186;exitDx=0;exitDy=0;exitPerimeter=0;labelBackgroundColor=#DAD2D8;strokeColor=#A8201A;fontColor=#143642;" parent="1" edge="1">
          <mxGeometry width="160" relative="1" as="geometry">
            <mxPoint x="567.9499999999998" y="476.99800000000005" as="sourcePoint" />
            <mxPoint x="382.0599999999997" y="477.59000000000003" as="targetPoint" />
          </mxGeometry>
        </mxCell>
        <mxCell id="vIvqh3EOmnA0zH3-zFLY-30" value="" style="endArrow=open;endFill=1;endSize=12;html=1;rounded=1;entryX=-0.083;entryY=0.173;entryDx=0;entryDy=0;entryPerimeter=0;labelBackgroundColor=#DAD2D8;strokeColor=#A8201A;fontColor=#143642;" parent="1" edge="1">
          <mxGeometry width="160" relative="1" as="geometry">
            <mxPoint x="381.46000000000004" y="274.55999999999983" as="sourcePoint" />
            <mxPoint x="569.6300000000001" y="274.0039999999999" as="targetPoint" />
          </mxGeometry>
        </mxCell>
        <mxCell id="vIvqh3EOmnA0zH3-zFLY-31" value="Ask interface of selected &lt;br&gt;language" style="text;html=1;align=center;verticalAlign=middle;resizable=0;points=[];autosize=1;strokeColor=none;fillColor=none;rounded=1;fontColor=#143642;" parent="1" vertex="1">
          <mxGeometry x="400.83000000000004" y="234" width="150" height="40" as="geometry" />
        </mxCell>
        <mxCell id="-Mn29efosp4wrqT6ohKR-1" value="Select path src" style="text;html=1;align=center;verticalAlign=middle;resizable=0;points=[];autosize=1;strokeColor=none;fillColor=none;rounded=1;fontColor=#143642;" vertex="1" parent="1">
          <mxGeometry x="226.92" y="662" width="100" height="30" as="geometry" />
        </mxCell>
        <mxCell id="-Mn29efosp4wrqT6ohKR-2" value="" style="endArrow=open;endFill=1;endSize=12;html=1;rounded=1;labelBackgroundColor=#DAD2D8;strokeColor=#A8201A;fontColor=#143642;" edge="1" parent="1">
          <mxGeometry width="160" relative="1" as="geometry">
            <mxPoint x="182.92" y="690" as="sourcePoint" />
            <mxPoint x="372.92" y="690" as="targetPoint" />
          </mxGeometry>
        </mxCell>
        <mxCell id="-Mn29efosp4wrqT6ohKR-3" value="Send path search request" style="text;html=1;align=center;verticalAlign=middle;resizable=0;points=[];autosize=1;strokeColor=none;fillColor=none;rounded=1;fontColor=#143642;" vertex="1" parent="1">
          <mxGeometry x="396.46" y="672" width="160" height="30" as="geometry" />
        </mxCell>
        <mxCell id="-Mn29efosp4wrqT6ohKR-4" value="" style="endArrow=open;endFill=1;endSize=12;html=1;rounded=1;labelBackgroundColor=#DAD2D8;strokeColor=#A8201A;fontColor=#143642;" edge="1" parent="1">
          <mxGeometry width="160" relative="1" as="geometry">
            <mxPoint x="380.46" y="701.9999999999999" as="sourcePoint" />
            <mxPoint x="570.46" y="701.9999999999999" as="targetPoint" />
          </mxGeometry>
        </mxCell>
        <mxCell id="-Mn29efosp4wrqT6ohKR-5" value="" style="endArrow=block;dashed=1;endFill=0;endSize=12;html=1;rounded=1;targetPerimeterSpacing=-4;sourcePerimeterSpacing=3;exitX=-0.099;exitY=0.603;exitDx=0;exitDy=0;exitPerimeter=0;labelBackgroundColor=#DAD2D8;strokeColor=#A8201A;fontColor=#143642;" edge="1" parent="1">
          <mxGeometry width="160" relative="1" as="geometry">
            <mxPoint x="567.88" y="765.7199999999998" as="sourcePoint" />
            <mxPoint x="381.4566666666668" y="766" as="targetPoint" />
          </mxGeometry>
        </mxCell>
        <mxCell id="-Mn29efosp4wrqT6ohKR-6" value="Send error" style="text;html=1;align=center;verticalAlign=middle;resizable=0;points=[];autosize=1;strokeColor=none;fillColor=none;rounded=1;fontColor=#143642;" vertex="1" parent="1">
          <mxGeometry x="436.3700000000001" y="739" width="80" height="30" as="geometry" />
        </mxCell>
        <mxCell id="-Mn29efosp4wrqT6ohKR-7" value="" style="endArrow=block;endFill=0;endSize=12;html=1;rounded=1;labelBackgroundColor=#DAD2D8;strokeColor=#A8201A;fontColor=#143642;dashed=1;" edge="1" parent="1">
          <mxGeometry width="160" relative="1" as="geometry">
            <mxPoint x="372.84000000000003" y="777.75" as="sourcePoint" />
            <mxPoint x="183.0066666666669" y="777.75" as="targetPoint" />
          </mxGeometry>
        </mxCell>
        <mxCell id="-Mn29efosp4wrqT6ohKR-8" value="Notify user error message" style="text;html=1;align=center;verticalAlign=middle;resizable=0;points=[];autosize=1;strokeColor=none;fillColor=none;rounded=1;fontColor=#143642;" vertex="1" parent="1">
          <mxGeometry x="197.42" y="747.75" width="160" height="30" as="geometry" />
        </mxCell>
        <mxCell id="-Mn29efosp4wrqT6ohKR-9" value="" style="endArrow=block;dashed=1;endFill=0;endSize=12;html=1;rounded=1;targetPerimeterSpacing=-4;sourcePerimeterSpacing=3;exitX=-0.099;exitY=0.603;exitDx=0;exitDy=0;exitPerimeter=0;labelBackgroundColor=#DAD2D8;strokeColor=#A8201A;fontColor=#143642;" edge="1" parent="1">
          <mxGeometry width="160" relative="1" as="geometry">
            <mxPoint x="567.8700000000001" y="841.8699999999998" as="sourcePoint" />
            <mxPoint x="381.44666666666694" y="842.15" as="targetPoint" />
          </mxGeometry>
        </mxCell>
        <mxCell id="-Mn29efosp4wrqT6ohKR-10" value="Send confirmation" style="text;html=1;align=center;verticalAlign=middle;resizable=0;points=[];autosize=1;strokeColor=none;fillColor=none;rounded=1;fontColor=#143642;" vertex="1" parent="1">
          <mxGeometry x="416.3600000000001" y="815.15" width="120" height="30" as="geometry" />
        </mxCell>
        <mxCell id="-Mn29efosp4wrqT6ohKR-11" value="" style="endArrow=block;endFill=0;endSize=12;html=1;rounded=1;labelBackgroundColor=#DAD2D8;strokeColor=#A8201A;fontColor=#143642;dashed=1;" edge="1" parent="1">
          <mxGeometry width="160" relative="1" as="geometry">
            <mxPoint x="372.83000000000015" y="853.9" as="sourcePoint" />
            <mxPoint x="182.9966666666669" y="853.9" as="targetPoint" />
          </mxGeometry>
        </mxCell>
        <mxCell id="-Mn29efosp4wrqT6ohKR-12" value="Notify user confirmation &lt;br&gt;message" style="text;html=1;align=center;verticalAlign=middle;resizable=0;points=[];autosize=1;strokeColor=none;fillColor=none;rounded=1;fontColor=#143642;" vertex="1" parent="1">
          <mxGeometry x="202.41" y="813.9" width="150" height="40" as="geometry" />
        </mxCell>
      </root>
    </mxGraphModel>
  </diagram>
  <diagram id="3ZrVqN0CCjWX2elIm5Bh" name="Page-2">
    <mxGraphModel dx="731" dy="351" grid="1" gridSize="10" guides="1" tooltips="1" connect="1" arrows="1" fold="1" page="1" pageScale="1" pageWidth="413" pageHeight="291" math="0" shadow="0">
      <root>
        <mxCell id="0" />
        <mxCell id="1" parent="0" />
      </root>
    </mxGraphModel>
  </diagram>
</mxfile>
